HIERARCHY
ROOT Hips
{
	OFFSET 0.000000 0.000000 0.000000
	CHANNELS 6 Xposition Yposition Zposition Xrotation Yrotation Zrotation
	JOINT Chest
	{
		OFFSET 0.000000 0.009282 11.569106
		CHANNELS 6 Xposition Yposition Zposition Xrotation Yrotation Zrotation
		JOINT Chest2
		{
			OFFSET 0.000000 -0.016863 9.269641
			CHANNELS 6 Xposition Yposition Zposition Xrotation Yrotation Zrotation
			JOINT Chest3
			{
				OFFSET 0.000000 0.000000 8.374491
				CHANNELS 6 Xposition Yposition Zposition Xrotation Yrotation Zrotation
				JOINT Chest4
				{
					OFFSET 0.000000 0.000000 8.374493
					CHANNELS 6 Xposition Yposition Zposition Xrotation Yrotation Zrotation
					JOINT Neck
					{
						OFFSET 0.000000 -0.000001 12.152554
						CHANNELS 6 Xposition Yposition Zposition Xrotation Yrotation Zrotation
						JOINT Head
						{
							OFFSET 0.000000 -0.040100 7.802319
							CHANNELS 6 Xposition Yposition Zposition Xrotation Yrotation Zrotation
							End Site
							{
								OFFSET 0.000000 -0.020946 14.853096
							}
						}
					}
					JOINT RightCollar
					{
						OFFSET -2.894404 0.000000 6.791374
						CHANNELS 6 Xposition Yposition Zposition Xrotation Yrotation Zrotation
						JOINT RightShoulder
						{
							OFFSET -13.574684 0.000000 0.000000
							CHANNELS 6 Xposition Yposition Zposition Xrotation Yrotation Zrotation
							JOINT RightElbow
							{
								OFFSET -23.923903 0.000000 0.000000
								CHANNELS 6 Xposition Yposition Zposition Xrotation Yrotation Zrotation
								JOINT RightWrist
								{
									OFFSET -19.846718 -0.012765 0.000000
									CHANNELS 6 Xposition Yposition Zposition Xrotation Yrotation Zrotation
									End Site
									{
										OFFSET -14.973145 0.000000 0.000000
									}
								}
							}
						}
					}
					JOINT LeftCollar
					{
						OFFSET 2.894404 0.000000 6.791374
						CHANNELS 6 Xposition Yposition Zposition Xrotation Yrotation Zrotation
						JOINT LeftShoulder
						{
							OFFSET 13.574684 0.000000 0.000000
							CHANNELS 6 Xposition Yposition Zposition Xrotation Yrotation Zrotation
							JOINT LeftElbow
							{
								OFFSET 23.923903 0.000000 0.000000
								CHANNELS 6 Xposition Yposition Zposition Xrotation Yrotation Zrotation
								JOINT LeftWrist
								{
									OFFSET 19.846718 -0.012765 0.000000
									CHANNELS 6 Xposition Yposition Zposition Xrotation Yrotation Zrotation
									End Site
									{
										OFFSET 14.973145 0.000000 0.000000
									}
								}
							}
						}
					}
				}
			}
		}
	}
	JOINT RightHip
	{
		OFFSET -9.469263 -0.004642 0.045487
		CHANNELS 6 Xposition Yposition Zposition Xrotation Yrotation Zrotation
		JOINT RightKnee
		{
			OFFSET 0.000000 -0.002666 -40.478676
			CHANNELS 6 Xposition Yposition Zposition Xrotation Yrotation Zrotation
			JOINT RightAnkle
			{
				OFFSET 0.000000 -0.049110 -35.224068
				CHANNELS 6 Xposition Yposition Zposition Xrotation Yrotation Zrotation
				JOINT RightToe
				{
					OFFSET 0.000000 -12.539530 -6.151390
					CHANNELS 6 Xposition Yposition Zposition Xrotation Yrotation Zrotation
					End Site
					{
						OFFSET 0.000000 -5.044995 -1.291870
					}
				}
			}
		}
	}
	JOINT LeftHip
	{
		OFFSET 9.469263 -0.004642 0.045487
		CHANNELS 6 Xposition Yposition Zposition Xrotation Yrotation Zrotation
		JOINT LeftKnee
		{
			OFFSET 0.000000 -0.002666 -40.478676
			CHANNELS 6 Xposition Yposition Zposition Xrotation Yrotation Zrotation
			JOINT LeftAnkle
			{
				OFFSET 0.000000 -0.049110 -35.224068
				CHANNELS 6 Xposition Yposition Zposition Xrotation Yrotation Zrotation
				JOINT LeftToe
				{
					OFFSET 0.000000 -12.539530 -6.151390
					CHANNELS 6 Xposition Yposition Zposition Xrotation Yrotation Zrotation
					End Site
					{
						OFFSET 0.000000 -5.044995 -1.291870
					}
				}
			}
		}
	}
}
MOTION
Frames: 7
Frame Time: 0.016667
-39.493076 -14.549385 81.531792 3.176935 5.006608 -138.891760 0.000004 0.009279 11.569112 7.068303 2.098494 0.745344 0.000002 -0.016860 9.269622 3.166575 0.933234 0.377187 -0.000000 0.000002 8.374489 3.166575 0.933234 0.377185 0.000001 -0.000004 8.374495 2.375457 0.697994 0.287734 0.000001 -0.000004 12.152550 25.743646 -1.207654 -1.410596 -0.000004 -0.040111 7.802325 11.609203 -1.893594 -2.860542 -2.894404 -0.000001 6.791372 -7.549115 -10.028822 -1.804124 -13.574686 -0.000001 -0.000007 18.257362 -40.481674 -3.518451 -23.923889 -0.000004 0.000000 67.741365 24.247243 68.682415 -19.846710 -0.012768 0.000005 -61.451540 45.524102 86.217362 2.894405 -0.000001 6.791368 -4.745387 6.723044 -3.456953 13.574677 0.000003 -0.000023 18.614106 40.423064 10.849543 23.923899 0.000001 -0.000004 59.865426 -10.895881 -68.479244 19.846716 -0.012773 0.000002 -32.658543 -32.928974 -86.683823 -9.469258 -0.004645 0.045491 -15.584272 14.868760 -26.539339 0.000625 -0.002744 -40.478535 2.937429 -0.700402 -13.422862 -0.000336 -0.049247 -35.223289 17.508160 -4.564126 7.125901 0.000001 -12.539531 -6.151342 1.016256 1.001111 -0.033009 9.469269 -0.004646 0.045489 6.242252 9.755876 15.060518 -0.000696 -0.002772 -40.478447 3.789324 5.195434 15.089449 -0.000513 -0.049206 -35.224548 -8.774505 -9.943038 11.280325 -0.000002 -12.539526 -6.151378 0.151624 0.126788 -0.014594 
-39.697990 -14.489526 81.483521 3.253414 5.109516 -139.033145 -0.000000 0.009282 11.569115 6.995639 2.106801 0.720956 -0.000001 -0.016865 9.269641 3.134869 0.928259 0.364487 0.000000 -0.000003 8.374495 3.134869 0.928259 0.364490 -0.000001 -0.000000 8.374505 2.351654 0.694346 0.278136 -0.000002 -0.000002 12.152572 25.785667 -1.151862 -1.398574 0.000000 -0.040097 7.802322 11.688554 -1.794879 -2.825118 -2.894404 -0.000001 6.791389 -7.658748 -10.032143 -1.801487 -13.574686 0.000002 0.000002 18.249082 -40.505522 -3.682248 -23.923893 -0.000002 -0.000009 67.759971 24.196647 68.628935 -19.846704 -0.012769 0.000008 -61.420251 45.501771 86.185034 2.894403 -0.000001 6.791391 -4.804233 6.773265 -3.426618 13.574679 -0.000001 0.000000 18.675440 40.391802 10.829727 23.923903 0.000002 -0.000004 59.896292 -10.840574 -68.477414 19.846701 -0.012769 0.000008 -32.705224 -32.893037 -86.691759 -9.469265 -0.004642 0.045498 -15.021251 14.735961 -27.143180 0.000614 -0.002739 -40.478531 2.819467 -0.558250 -13.271888 -0.000324 -0.049247 -35.223293 17.369810 -4.660787 6.836245 0.000004 -12.539534 -6.151347 0.676412 0.818099 -0.013449 9.469262 -0.004640 0.045491 6.457044 9.899899 14.945642 -0.000693 -0.002770 -40.478436 3.858347 5.169653 15.173351 -0.000518 -0.049210 -35.224556 -9.006622 -10.006394 11.371995 0.000001 -12.539530 -6.151372 0.159943 0.155119 -0.013674 
-39.891846 -14.427766 81.440430 3.351192 5.221463 -139.164817 -0.000000 0.009283 11.569109 6.937707 2.113324 0.695820 0.000006 -0.016860 9.269639 3.106349 0.921109 0.352423 0.000000 -0.000002 8.374493 3.106350 0.921109 0.352416 0.000001 0.000002 8.374508 2.330244 0.689062 0.268995 0.000001 -0.000004 12.152541 25.821479 -1.099867 -1.376874 0.000004 -0.040098 7.802321 11.756218 -1.705182 -2.772988 -2.894403 -0.000002 6.791358 -7.796040 -10.044149 -1.786396 -13.574687 -0.000001 0.000012 18.198155 -40.519708 -3.900256 -23.923901 -0.000004 -0.000000 67.805672 24.163017 68.578897 -19.846714 -0.012771 0.000005 -61.368061 45.479986 86.147680 2.894408 -0.000002 6.791361 -4.870874 6.817559 -3.389372 13.574679 -0.000002 -0.000011 18.707579 40.367347 10.839234 23.923899 0.000003 0.000009 59.961111 -10.760993 -68.473247 19.846720 -0.012771 -0.000001 -32.742697 -32.863636 -86.691568 -9.469263 -0.004642 0.045495 -14.486544 14.600636 -27.451195 0.000624 -0.002743 -40.478539 2.730201 -0.497678 -13.513722 -0.000318 -0.049245 -35.223305 17.182859 -4.646523 6.794994 0.000005 -12.539532 -6.151359 0.449953 0.657715 -0.003181 9.469263 -0.004641 0.045499 6.693853 10.030263 14.866831 -0.000704 -0.002771 -40.478432 3.924697 5.132122 15.239400 -0.000520 -0.049215 -35.224567 -9.226465 -10.055410 11.350426 -0.000001 -12.539530 -6.151365 0.165170 0.178172 -0.010964 
-40.068371 -14.350366 81.403320 3.464051 5.323906 -139.285862 0.000002 0.009282 11.569115 6.889635 2.109355 0.669806 -0.000001 -0.016863 9.269637 3.079562 0.914051 0.340413 0.000000 -0.000000 8.374496 3.079562 0.914050 0.340406 -0.000002 -0.000004 8.374484 2.310133 0.683842 0.259911 -0.000003 -0.000003 12.152546 25.845171 -1.056923 -1.345688 -0.000005 -0.040094 7.802299 11.801160 -1.633958 -2.705744 -2.894404 -0.000002 6.791367 -7.947931 -10.060299 -1.781969 -13.574689 -0.000001 -0.000006 18.187018 -40.518236 -4.083310 -23.923885 0.000004 -0.000004 67.855334 24.124778 68.533688 -19.846725 -0.012769 0.000006 -61.345084 45.456743 86.134942 2.894402 -0.000004 6.791367 -4.926138 6.850707 -3.359831 13.574682 -0.000002 -0.000003 18.723833 40.368037 10.870886 23.923910 0.000007 0.000004 60.009175 -10.684884 -68.469341 19.846718 -0.012771 0.000008 -32.756874 -32.849682 -86.672232 -9.469263 -0.004642 0.045499 -13.977005 14.420980 -27.565359 0.000646 -0.002745 -40.478546 2.644506 -0.470365 -13.936473 -0.000321 -0.049243 -35.223320 17.002832 -4.614545 6.919765 -0.000002 -12.539532 -6.151364 0.268350 0.550904 0.006566 9.469267 -0.004642 0.045497 6.937222 10.132261 14.813587 -0.000705 -0.002772 -40.478428 3.982381 5.084748 15.313177 -0.000518 -0.049207 -35.224586 -9.434422 -10.073407 11.343180 -0.000001 -12.539531 -6.151367 0.168435 0.187173 -0.000198 
-40.216511 -14.264384 81.372337 3.581633 5.405204 -139.397631 -0.000004 0.009279 11.569115 6.843044 2.093656 0.642515 0.000004 -0.016861 9.269620 3.055743 0.906971 0.329583 0.000000 -0.000002 8.374495 3.055742 0.906971 0.329581 0.000003 -0.000001 8.374498 2.292250 0.678601 0.251725 -0.000002 -0.000002 12.152545 25.854358 -1.020911 -1.306871 -0.000001 -0.040102 7.802327 11.818988 -1.576872 -2.626313 -2.894406 0.000000 6.791364 -8.078376 -10.070246 -1.795249 -13.574689 0.000002 -0.000000 18.238543 -40.517433 -4.171460 -23.923893 -0.000010 -0.000009 67.881644 24.077185 68.486484 -19.846716 -0.012766 0.000001 -61.345604 45.429477 86.140058 2.894404 0.000002 6.791366 -4.945897 6.861035 -3.350911 13.574686 0.000002 -0.000004 18.703015 40.403602 10.919889 23.923897 -0.000007 -0.000001 60.030601 -10.633993 -68.470406 19.846708 -0.012775 0.000010 -32.749114 -32.841254 -86.618410 -9.469265 -0.004642 0.045497 -13.482244 14.167611 -27.667585 0.000658 -0.002750 -40.478546 2.542841 -0.453640 -14.239893 -0.000318 -0.049237 -35.223335 16.821540 -4.581826 6.845510 -0.000003 -12.539531 -6.151375 0.096550 0.478932 0.016659 9.469259 -0.004642 0.045491 7.148185 10.192713 14.764463 -0.000712 -0.002776 -40.478436 4.064041 5.029643 15.434305 -0.000515 -0.049219 -35.224606 -9.640471 -10.056393 11.319753 -0.000002 -12.539533 -6.151370 0.171327 0.189607 0.007331 
-40.325508 -14.163595 81.348892 3.695777 5.465527 -139.507392 -0.000004 0.009283 11.569104 6.794156 2.066144 0.622451 -0.000004 -0.016863 9.269646 3.032901 0.900624 0.321862 -0.000004 0.000003 8.374490 3.032902 0.900624 0.321877 -0.000001 0.000002 8.374493 2.275104 0.673890 0.245876 0.000004 -0.000004 12.152545 25.852450 -0.990575 -1.263904 -0.000007 -0.040090 7.802317 11.816042 -1.530916 -2.540697 -2.894400 -0.000003 6.791365 -8.119362 -10.060942 -1.805151 -13.574694 0.000004 0.000013 18.284949 -40.515910 -4.180871 -23.923880 -0.000005 -0.000011 67.874759 24.012456 68.463965 -19.846735 -0.012762 0.000003 -61.357229 45.412647 86.152154 2.894408 -0.000003 6.791376 -4.966785 6.872282 -3.342799 13.574683 0.000003 -0.000004 18.686168 40.439180 10.962390 23.923899 0.000007 0.000013 60.049835 -10.591133 -68.467845 19.846718 -0.012773 0.000012 -32.739842 -32.821654 -86.562682 -9.469268 -0.004640 0.045485 -13.009104 13.878326 -27.820776 0.000654 -0.002751 -40.478561 2.495886 -0.459116 -14.238241 -0.000310 -0.049234 -35.223331 16.621651 -4.560182 6.748804 0.000003 -12.539536 -6.151385 -0.083319 0.393799 0.022051 9.469258 -0.004640 0.045483 7.315127 10.208227 14.758022 -0.000719 -0.002771 -40.478424 4.170789 4.985178 15.580034 -0.000516 -0.049215 -35.224602 -9.838550 -10.013359 11.341422 -0.000002 -12.539529 -6.151374 0.170868 0.185072 0.015670 
-40.391201 -14.062012 81.333115 3.781250 5.513114 -139.598521 -0.000001 0.009278 11.569103 6.726888 2.044015 0.593734 0.000003 -0.016866 9.269649 3.010051 0.896118 0.316146 0.000002 0.000001 8.374500 3.010050 0.896118 0.316137 0.000003 -0.000003 8.374487 2.257957 0.670551 0.241518 -0.000001 0.000001 12.152566 25.841934 -0.963668 -1.217594 -0.000001 -0.040090 7.802331 11.797026 -1.491854 -2.449864 -2.894407 0.000006 6.791378 -8.110772 -10.050968 -1.804299 -13.574685 -0.000001 0.000007 18.316689 -40.505522 -4.166244 -23.923899 -0.000006 -0.000005 67.873584 23.946662 68.443686 -19.846727 -0.012764 0.000005 -61.360179 45.406442 86.161662 2.894401 0.000005 6.791377 -4.983306 6.889611 -3.332565 13.574678 0.000004 -0.000023 18.666695 40.456016 10.993764 23.923908 -0.000003 -0.000005 60.101266 -10.534575 -68.462435 19.846727 -0.012772 -0.000008 -32.757246 -32.805832 -86.541789 -9.469264 -0.004644 0.045486 -12.601927 13.649465 -28.011695 0.000650 -0.002748 -40.478550 2.592458 -0.529530 -14.015184 -0.000310 -0.049232 -35.223339 16.392521 -4.518262 6.615329 0.000004 -12.539528 -6.151394 -0.283894 0.286635 0.026561 9.469260 -0.004644 0.045488 7.418524 10.197074 14.760498 -0.000720 -0.002781 -40.478420 4.319347 4.946243 15.743461 -0.000516 -0.049217 -35.224613 -10.041836 -9.944113 11.345281 -0.000001 -12.539531 -6.151374 0.178553 0.175945 0.028520 
